<svg id="Capa_1" data-name="Capa 1" xmlns="http://www.w3.org/2000/svg" viewBox="0 0 1495 378"><defs><style>.cls-1{fill:#222d33;}.cls-2{fill:#fff;}</style></defs><title>Logo</title><rect class="cls-1" x="-384" y="-424" width="1968" height="1114"/><path class="cls-2" d="M192.37,8.85a180,180,0,1,0,180,180A180,180,0,0,0,192.37,8.85Zm0,330a150,150,0,1,1,150-150A150,150,0,0,1,192.37,338.85Z"/><path class="cls-2" d="M100,263.51c0-18.4,2.63-26.29,2.63-42.59,0-8.93-7.88-18.4-35.22-18.92V175.71c27.34-.53,35.22-10,35.22-18.93,0-16.3-2.63-24.19-2.63-42.59,0-28.92,15-38.38,49.17-38.38h21.81V99.47h-9.72c-20,0-24.45,2.63-24.45,16.3,0,13.41,1,25.76,1,41,0,21-8.15,28.39-27.34,31.55v1c19.19,3.15,27.34,10.51,27.34,31.54,0,15.25-1,27.61-1,41,0,13.67,4.47,16.3,24.45,16.3h9.72V301.9H149.13C115,301.9,100,292.43,100,263.51Z"/><path class="cls-2" d="M213.79,278.24h9.72c19.72,0,24.19-2.63,24.19-16.3,0-13.41-.79-25.77-.79-41,0-21,8.15-28.39,27.34-31.54v-1c-19.19-3.16-27.34-10.52-27.34-31.55,0-15.25.79-27.6.79-41,0-13.67-4.47-16.3-24.19-16.3h-9.72V75.81h21.82c34.17,0,49.16,9.46,49.16,38.38,0,18.4-2.9,26.29-2.9,42.59,0,8.94,7.89,18.4,35.5,18.93V202c-27.61.52-35.5,10-35.5,18.92,0,16.3,2.9,24.19,2.9,42.59,0,28.92-15,38.39-49.16,38.39H213.79Z"/><path class="cls-2" d="M421,259.58V120.19h44.9a66.09,66.09,0,0,1,33.22,8.38,59,59,0,0,1,23,23.65,71.35,71.35,0,0,1,8.37,34.22v6.42q0,19.14-8.09,34.32a59.1,59.1,0,0,1-22.78,23.74,64.59,64.59,0,0,1-32.79,8.66Zm33.6-113.44v87.6h11.68q14.46,0,22.21-10.3t7.76-30.58v-6q0-20.21-7.76-30.45T465.9,146.14Z"/><path class="cls-2" d="M609.85,222.53q0-7.36-5.22-11.48t-18.33-8.52A177.49,177.49,0,0,1,564.85,194q-27.09-13.32-27.09-36.58A32.81,32.81,0,0,1,544.51,137q6.75-8.85,19.1-13.78a74.25,74.25,0,0,1,27.76-4.93,64.9,64.9,0,0,1,27,5.36,42.64,42.64,0,0,1,18.53,15.27,39.9,39.9,0,0,1,6.6,22.64H609.94q0-8.52-5.21-13.21t-14.12-4.69q-9,0-14.22,4a12.19,12.19,0,0,0-5.22,10.1q0,5.37,5.75,9.72t20.2,9a123.82,123.82,0,0,1,23.74,10q22.59,13,22.59,35.9,0,18.28-13.78,28.72T591.85,261.5a75,75,0,0,1-30.68-6.08q-13.74-6.07-20.68-16.66a43.36,43.36,0,0,1-6.94-24.36h33.7q0,11.19,5.79,16.51t18.81,5.32q8.32,0,13.16-3.59A11.85,11.85,0,0,0,609.85,222.53Z"/><path class="cls-2" d="M695,120.19l31.11,97,31-97h44.23V259.58h-33.7V227l3.26-66.63-33.7,99.18H715l-33.79-99.27L684.48,227v32.55h-33.6V120.19Z"/><path class="cls-2" d="M807.37,206.83q0-15.51,6-27.62a43.16,43.16,0,0,1,17.33-18.62q11.29-6.5,26.52-6.51,23.26,0,36.67,14.41t13.4,39.21v1.14q0,24.22-13.45,38.44T857.44,261.5q-22.11,0-35.52-13.26t-14.45-36Zm32.27,2q0,14.37,4.49,21.07t13.31,6.7q17.23,0,17.62-26.52v-3.26q0-27.86-17.81-27.85-16.18,0-17.52,24Z"/><path class="cls-2" d="M941.36,156l1.06,12.16q10.71-14.08,29.58-14.08,16.18,0,24.17,9.67t8.28,29.11v66.72H972.1V194.2q0-7.86-3.16-11.54T957.45,179q-9.48,0-14.08,7.46v73.14H911.11V156Z"/><path class="cls-2" d="M1050.08,130.25V156h17v22.4h-17v47.39c0,3.89.7,6.61,2.11,8.14s4.18,2.3,8.33,2.3a47.56,47.56,0,0,0,8-.58v23.07a59.58,59.58,0,0,1-18.19,2.78q-16.66,0-24.6-7.85t-7.95-23.84V178.4h-13.21V156h13.21V130.25Z"/><path class="cls-2" d="M1120.12,261.5q-23.83,0-38.58-14.22t-14.74-37V207.6q0-15.89,5.89-28a43,43,0,0,1,17.18-18.81q11.3-6.66,26.81-6.66,21.83,0,34.46,13.55t12.64,37.77v12.54h-64.15q1.72,8.72,7.57,13.69t15.12,5q15.33,0,23.94-10.72L1161,243.31q-6,8.33-17.09,13.26A57.85,57.85,0,0,1,1120.12,261.5ZM1116.48,179q-14.16,0-16.85,18.76h32.56v-2.49q.18-7.75-3.93-12T1116.48,179Z"/><path class="cls-2" d="M1229.61,185.2l-10.63-.77q-15.23,0-19.53,9.58v65.57h-32.26V156h30.25l1,13.31q8.15-15.23,22.69-15.23a31.64,31.64,0,0,1,9,1.15Z"/><path class="cls-2" d="M1294.09,185.2l-10.62-.77q-15.23,0-19.53,9.58v65.57h-32.27V156h30.26l1,13.31q8.13-15.23,22.69-15.23a31.69,31.69,0,0,1,9,1.15Z"/><path class="cls-2" d="M1344.22,261.5q-23.84,0-38.58-14.22t-14.74-37V207.6q0-15.89,5.88-28A43.07,43.07,0,0,1,1314,160.74q11.29-6.66,26.8-6.66,21.84,0,34.47,13.55t12.64,37.77v12.54h-64.15q1.73,8.72,7.57,13.69t15.12,5q15.32,0,23.94-10.72l14.74,17.42q-6,8.33-17.09,13.26A57.85,57.85,0,0,1,1344.22,261.5ZM1340.58,179q-14.16,0-16.85,18.76h32.55v-2.49q.2-7.75-3.92-12T1340.58,179Z"/><path class="cls-2" d="M1431.21,214.4l17.23-58.4H1483l-42.22,120.91-1.82,4.41q-9,20.1-31.78,20.1a50.2,50.2,0,0,1-13.31-1.91v-23h4.21q6.8,0,10.39-2t5.31-7.05l2.59-6.89-36-104.63h34.47Z"/></svg>